<?xml version="1.0" standalone="no"?>
<!DOCTYPE svg PUBLIC "-//W3C//DTD SVG 20010904//EN"
 "http://www.w3.org/TR/2001/REC-SVG-20010904/DTD/svg10.dtd">
<svg version="1.0" xmlns="http://www.w3.org/2000/svg"
 width="800.000000pt" height="500.000000pt" viewBox="0 0 800.000000 500.000000"
 preserveAspectRatio="xMidYMid meet">

<g transform="translate(0.000000,500.000000) scale(0.100000,-0.100000)"
fill="#000000" stroke="none">
<path d="M2679 2776 c-88 -31 -149 -114 -149 -202 0 -139 139 -242 278 -204
46 12 115 67 136 109 57 112 -7 260 -127 296 -61 18 -90 18 -138 1z m132 -135
c21 -22 29 -39 29 -66 0 -45 -45 -95 -85 -95 -43 0 -82 27 -94 63 -14 42 -3
76 35 106 38 30 79 27 115 -8z"/>
<path d="M5990 2781 c-101 -33 -161 -108 -163 -200 -1 -68 19 -115 68 -160 99
-91 251 -74 330 37 27 39 30 52 30 116 0 62 -4 78 -27 114 -49 73 -163 118
-238 93z m94 -122 c14 -7 32 -27 41 -46 45 -94 -72 -177 -146 -104 -76 76 7
194 105 150z"/>
<path d="M657 2774 c-4 -4 -7 -133 -7 -286 l0 -279 58 3 57 3 3 113 3 112 94
0 95 0 0 -115 0 -116 58 3 57 3 3 277 2 278 -23 6 c-14 3 -39 4 -58 2 l-34 -3
-3 -107 -3 -108 -94 0 -94 0 -3 108 -3 107 -50 3 c-28 2 -54 0 -58 -4z"/>
<path d="M1217 2773 c-4 -3 -7 -132 -7 -285 l0 -278 193 2 192 3 0 55 0 55
-133 3 -133 3 3 52 3 52 108 3 107 3 0 54 0 55 -110 0 -110 0 0 55 0 54 133 3
132 3 3 49 c2 32 -1 52 -10 57 -15 10 -362 12 -371 2z"/>
<path d="M2144 2767 c-119 -45 -193 -166 -181 -297 10 -111 63 -192 155 -237
100 -49 244 -30 310 40 l21 22 -35 38 c-39 43 -47 44 -81 17 -58 -45 -145 -35
-203 25 -29 30 -34 43 -38 94 -5 75 10 122 53 159 50 45 103 50 169 18 29 -14
57 -26 63 -26 5 0 25 16 44 36 l34 36 -34 28 c-19 16 -55 36 -79 45 -53 18
-153 19 -198 2z"/>
<path d="M4037 2773 c-4 -3 -7 -132 -7 -285 l0 -278 193 2 192 3 3 49 c2 32
-1 52 -10 57 -7 5 -68 9 -136 9 l-123 0 3 53 3 52 108 3 108 3 -3 52 -3 52
-107 3 -108 3 0 54 0 54 133 3 132 3 3 43 c5 71 3 72 -198 72 -97 0 -180 -3
-183 -7z"/>
<path d="M4522 2772 c-9 -7 -12 -70 -10 -283 l3 -274 190 0 190 0 0 55 0 55
-133 3 -133 3 3 52 3 52 108 3 107 3 0 54 0 55 -110 0 -110 0 0 55 0 54 133 3
132 3 3 49 c2 32 -1 52 -10 57 -17 11 -349 11 -366 1z"/>
<path d="M5292 2772 c-9 -7 -12 -70 -10 -283 l3 -274 54 -3 c37 -2 57 1 62 10
5 7 9 59 9 116 l0 102 90 0 89 0 3 -112 3 -113 58 -3 57 -3 -2 283 -3 283 -34
3 c-19 2 -44 1 -57 -2 -23 -6 -24 -9 -24 -111 l0 -105 -90 0 -90 0 0 98 c0 63
-4 102 -12 110 -13 13 -86 16 -106 4z"/>
<path d="M7002 2759 c-78 -39 -113 -139 -78 -222 20 -49 68 -84 133 -97 32 -7
66 -19 76 -28 25 -22 21 -59 -8 -78 -34 -22 -71 -11 -90 27 -15 28 -19 30 -68
27 -48 -3 -52 -5 -55 -30 -5 -41 34 -102 81 -128 90 -51 222 -17 262 66 23 50
17 139 -13 181 -26 37 -80 64 -140 71 -51 6 -78 36 -68 77 13 52 96 52 116 0
9 -23 15 -25 65 -25 55 0 55 0 55 31 0 115 -149 186 -268 128z"/>
<path d="M7387 2774 c-4 -4 -7 -133 -7 -286 l0 -278 190 0 191 0 -3 58 -3 57
-127 3 -128 3 0 54 0 55 111 0 110 0 -3 53 -3 52 -107 3 -108 3 0 54 0 55 130
0 131 0 -3 58 -3 57 -181 3 c-99 1 -183 -1 -187 -4z"/>
<path d="M230 2715 l0 -55 55 0 55 0 2 -222 3 -223 58 -3 57 -3 0 226 0 225
55 0 55 0 0 55 0 55 -170 0 -170 0 0 -55z"/>
<path d="M3075 2757 c-3 -7 -4 -131 -3 -277 l3 -265 60 0 60 0 3 107 3 107
107 3 107 3 0 55 0 55 -107 3 -108 3 0 49 0 49 128 3 127 3 3 58 3 57 -191 0
c-144 0 -192 -3 -195 -13z"/>
<path d="M3552 2493 l3 -278 58 -3 57 -3 0 110 0 110 108 3 107 3 3 58 3 57
-111 0 -110 0 0 50 0 49 133 3 132 3 0 55 0 55 -193 3 -192 2 2 -277z"/>
<path d="M6370 2560 c0 -220 4 -242 49 -294 70 -80 260 -80 333 1 42 46 48 84
48 298 l0 205 -60 0 -60 0 0 -194 c0 -192 0 -195 -24 -223 -20 -23 -32 -28
-71 -28 -39 0 -51 5 -71 28 -24 28 -24 31 -24 223 l0 194 -60 0 -60 0 0 -210z"/>
<path d="M2552 2273 l3 -58 193 -3 192 -2 0 60 0 60 -195 0 -196 0 3 -57z"/>
<path d="M5850 2270 l0 -60 193 2 192 3 0 55 0 55 -192 3 -193 2 0 -60z"/>
</g>
</svg>
